<mxfile host="app.diagrams.net" modified="2020-12-12T16:42:26.875Z" agent="5.0 (Windows NT 10.0; Win64; x64) AppleWebKit/537.36 (KHTML, like Gecko) Chrome/87.0.4280.88 Safari/537.36" etag="xVRpMMXUehV-yZaEG8GQ" version="13.9.8" type="github">
  <diagram id="vJp_-WfZZ8hn2X-BKur6" name="Page-1">
    <mxGraphModel dx="229" dy="123" grid="1" gridSize="10" guides="1" tooltips="1" connect="1" arrows="1" fold="1" page="1" pageScale="1" pageWidth="850" pageHeight="1100" math="0" shadow="0">
      <root>
        <mxCell id="0" />
        <mxCell id="1" parent="0" />
        <mxCell id="AVwbVJhN9KySrntE5dTE-2" value="" style="ellipse;whiteSpace=wrap;html=1;aspect=fixed;fontColor=#333333;fillColor=#000000;" vertex="1" parent="1">
          <mxGeometry x="590" y="350" width="10" height="10" as="geometry" />
        </mxCell>
        <mxCell id="AVwbVJhN9KySrntE5dTE-5" value="" style="ellipse;whiteSpace=wrap;html=1;aspect=fixed;fontColor=#333333;fillColor=#000000;" vertex="1" parent="1">
          <mxGeometry x="560" y="350" width="10" height="10" as="geometry" />
        </mxCell>
        <mxCell id="AVwbVJhN9KySrntE5dTE-6" value="" style="endArrow=none;html=1;exitX=0;exitY=0;exitDx=0;exitDy=0;entryX=1;entryY=1;entryDx=0;entryDy=0;" edge="1" parent="1" source="AVwbVJhN9KySrntE5dTE-4" target="AVwbVJhN9KySrntE5dTE-2">
          <mxGeometry width="50" height="50" relative="1" as="geometry">
            <mxPoint x="415" y="330" as="sourcePoint" />
            <mxPoint x="415" y="298" as="targetPoint" />
          </mxGeometry>
        </mxCell>
        <mxCell id="AVwbVJhN9KySrntE5dTE-7" value="" style="endArrow=none;html=1;exitX=1;exitY=0;exitDx=0;exitDy=0;entryX=0;entryY=1;entryDx=0;entryDy=0;" edge="1" parent="1" source="AVwbVJhN9KySrntE5dTE-4" target="AVwbVJhN9KySrntE5dTE-3">
          <mxGeometry width="50" height="50" relative="1" as="geometry">
            <mxPoint x="521.4644660940672" y="328.53553390593265" as="sourcePoint" />
            <mxPoint x="508.53553390593265" y="308.5355339059327" as="targetPoint" />
          </mxGeometry>
        </mxCell>
        <mxCell id="AVwbVJhN9KySrntE5dTE-8" value="" style="endArrow=none;html=1;exitX=0;exitY=0;exitDx=0;exitDy=0;entryX=1;entryY=1;entryDx=0;entryDy=0;" edge="1" parent="1" source="AVwbVJhN9KySrntE5dTE-1" target="AVwbVJhN9KySrntE5dTE-5">
          <mxGeometry width="50" height="50" relative="1" as="geometry">
            <mxPoint x="531.4644660940672" y="338.5355339059327" as="sourcePoint" />
            <mxPoint x="508.53553390593265" y="361.46446609406735" as="targetPoint" />
          </mxGeometry>
        </mxCell>
        <mxCell id="AVwbVJhN9KySrntE5dTE-1" value="" style="ellipse;whiteSpace=wrap;html=1;aspect=fixed;fillColor=#f5f5f5;fontColor=#333333;" vertex="1" parent="1">
          <mxGeometry x="545" y="330" width="10" height="10" as="geometry" />
        </mxCell>
        <mxCell id="AVwbVJhN9KySrntE5dTE-4" value="" style="ellipse;whiteSpace=wrap;html=1;aspect=fixed;fontColor=#333333;fillColor=#F5F5F5;" vertex="1" parent="1">
          <mxGeometry x="560" y="310" width="10" height="10" as="geometry" />
        </mxCell>
        <mxCell id="AVwbVJhN9KySrntE5dTE-3" value="" style="ellipse;whiteSpace=wrap;html=1;aspect=fixed;fontColor=#333333;fillColor=#000000;" vertex="1" parent="1">
          <mxGeometry x="530" y="350" width="10" height="10" as="geometry" />
        </mxCell>
        <mxCell id="AVwbVJhN9KySrntE5dTE-22" value="" style="ellipse;whiteSpace=wrap;html=1;aspect=fixed;fontColor=#333333;fillColor=#000000;" vertex="1" parent="1">
          <mxGeometry x="620" y="350" width="10" height="10" as="geometry" />
        </mxCell>
        <mxCell id="AVwbVJhN9KySrntE5dTE-23" value="" style="endArrow=none;html=1;exitX=0;exitY=0;exitDx=0;exitDy=0;entryX=1;entryY=1;entryDx=0;entryDy=0;" edge="1" parent="1" source="AVwbVJhN9KySrntE5dTE-21" target="AVwbVJhN9KySrntE5dTE-22">
          <mxGeometry width="50" height="50" relative="1" as="geometry">
            <mxPoint x="571.4644660940828" y="321.46446609408275" as="sourcePoint" />
            <mxPoint x="608.5355339059328" y="368.5355339059327" as="targetPoint" />
          </mxGeometry>
        </mxCell>
        <mxCell id="AVwbVJhN9KySrntE5dTE-24" value="" style="endArrow=none;dashed=1;html=1;strokeWidth=1;exitX=1;exitY=0;exitDx=0;exitDy=0;entryX=1;entryY=0;entryDx=0;entryDy=0;dashPattern=1 2;" edge="1" parent="1" source="AVwbVJhN9KySrntE5dTE-4" target="AVwbVJhN9KySrntE5dTE-21">
          <mxGeometry width="50" height="50" relative="1" as="geometry">
            <mxPoint x="580" y="380" as="sourcePoint" />
            <mxPoint x="630" y="320" as="targetPoint" />
          </mxGeometry>
        </mxCell>
        <mxCell id="AVwbVJhN9KySrntE5dTE-21" value="" style="ellipse;whiteSpace=wrap;html=1;aspect=fixed;fontColor=#333333;fillColor=#F5F5F5;" vertex="1" parent="1">
          <mxGeometry x="575" y="290" width="10" height="10" as="geometry" />
        </mxCell>
      </root>
    </mxGraphModel>
  </diagram>
</mxfile>
